<?xml version="1.0" encoding="UTF-8"?>
<svg width="32" height="32" viewBox="0 0 32 32" fill="none" xmlns="http://www.w3.org/2000/svg">
  <rect width="32" height="32" rx="8" fill="#4F46E5"/>
  <path d="M9 8H23C23.5523 8 24 8.44772 24 9V23C24 23.5523 23.5523 24 23 24H9C8.44772 24 8 23.5523 8 23V9C8 8.44772 8.44772 8 9 8Z" stroke="white" stroke-width="2"/>
  <path d="M12 18C12 18 13 16 14 16C15 16 15.5 18 16.5 18C17.5 18 18 16 19 16C20 16 21 18 21 18" stroke="white" stroke-width="2" stroke-linecap="round" stroke-linejoin="round"/>
  <line x1="12" y1="12" x2="21" y2="12" stroke="white" stroke-width="2" stroke-linecap="round"/>
</svg> 